<svg xmlns="http://www.w3.org/2000/svg" xml:space="preserve" x="0" y="0" version="1.1" viewBox="0 0 16 16"><circle fill="#0f1113" cx="8" cy="8" r="7.9"/><circle fill="#8c99cd" cx="9.1" cy="7.1" r=".5"/><circle fill="#8c99cd" cx="11.3" cy="4.9" r=".5"/><circle fill="#8c99cd" cx="9.1" cy="4.9" r=".5"/><circle fill="#8c99cd" cx="6.9" cy="4.9" r=".5"/><circle fill="#8c99cd" cx="4.7" cy="4.9" r=".5"/><circle fill="#8c99cd" cx="4.7" cy="7.1" r=".5"/><linearGradient id="a" x1="4.155" x2="11.853" y1="6.037" y2="6.037" gradientUnits="userSpaceOnUse"><stop offset="0" stop-color="#ff2c6d"/><stop offset="1" stop-color="#7fe4ff"/></linearGradient><circle fill="url(#a)" cx="9.1" cy="7.1" r=".5"/><linearGradient id="b" x1="4.155" x2="11.853" y1="6.037" y2="6.037" gradientUnits="userSpaceOnUse"><stop offset="0" stop-color="#ff2c6d"/><stop offset="1" stop-color="#7fe4ff"/></linearGradient><circle fill="url(#b)" cx="11.3" cy="4.9" r=".5"/><linearGradient id="c" x1="4.155" x2="11.853" y1="6.037" y2="6.037" gradientUnits="userSpaceOnUse"><stop offset="0" stop-color="#ff2c6d"/><stop offset="1" stop-color="#7fe4ff"/></linearGradient><circle fill="url(#c)" cx="9.1" cy="4.9" r=".5"/><linearGradient id="d" x1="4.155" x2="11.853" y1="6.037" y2="6.037" gradientUnits="userSpaceOnUse"><stop offset="0" stop-color="#ff2c6d"/><stop offset="1" stop-color="#7fe4ff"/></linearGradient><circle fill="url(#d)" cx="6.9" cy="4.9" r=".5"/><linearGradient id="e" x1="4.155" x2="11.853" y1="6.037" y2="6.037" gradientUnits="userSpaceOnUse"><stop offset="0" stop-color="#ff2c6d"/><stop offset="1" stop-color="#7fe4ff"/></linearGradient><circle fill="url(#e)" cx="4.7" cy="4.9" r=".5"/><linearGradient id="f" x1="4.155" x2="11.853" y1="6.037" y2="6.037" gradientUnits="userSpaceOnUse"><stop offset="0" stop-color="#ff2c6d"/><stop offset="1" stop-color="#7fe4ff"/></linearGradient><circle fill="url(#f)" cx="4.7" cy="7.1" r=".5"/><path d="M4.7 8.8c-.3 0-.5.2-.5.5v2.2c0 .3.2.5.5.5s.5-.2.5-.5V9.3c.1-.3-.2-.5-.5-.5zm4.4 0c-.3 0-.5.2-.5.5v2.2c0 .3.2.5.5.5s.5-.2.5-.5V9.3c.1-.3-.2-.5-.5-.5zM6.9 6.6c-.3 0-.5.2-.5.5v4.4c0 .3.2.5.5.5s.5-.2.5-.5V7.1c.1-.3-.2-.5-.5-.5zm4.4 0c-.3 0-.5.2-.5.5v4.4c0 .3.2.5.5.5s.5-.2.5-.5V7.1c.1-.3-.2-.5-.5-.5z" fill="#fff"/></svg>